<?xml version="1.0" encoding="UTF-8" standalone="no"?><svg xmlns="http://www.w3.org/2000/svg" xmlns:xlink="http://www.w3.org/1999/xlink" contentScriptType="application/ecmascript" contentStyleType="text/css" height="85px" preserveAspectRatio="none" style="width:322px;height:85px;background:#FFFFFF;" version="1.1" viewBox="0 0 322 85" width="322px" zoomAndPan="magnify"><defs><filter height="300%" id="f72ejg94t774k" width="300%" x="-1" y="-1"><feGaussianBlur result="blurOut" stdDeviation="2.0"/><feColorMatrix in="blurOut" result="blurOut2" type="matrix" values="0 0 0 0 0 0 0 0 0 0 0 0 0 0 0 0 0 0 .4 0"/><feOffset dx="4.0" dy="4.0" in="blurOut2" result="blurOut3"/><feBlend in="SourceGraphic" in2="blurOut3" mode="normal"/></filter></defs><g><!--MD5=[c88e65a0f892c31524c9bc6fd9ce900f]
entity Bob--><ellipse cx="19" cy="46.77" fill="#FEFECE" filter="url(#f72ejg94t774k)" rx="8" ry="8" style="stroke:#A80036;stroke-width:1.5;"/><text fill="#000000" font-family="sans-serif" font-size="14" lengthAdjust="spacing" textLength="26" x="6" y="77.3052">Bob</text><!--MD5=[2c779ae8328ac3f1086abb313344728d]
entity Alice--><ellipse cx="105" cy="46.77" fill="#FEFECE" filter="url(#f72ejg94t774k)" rx="8" ry="8" style="stroke:#A80036;stroke-width:1.5;"/><text fill="#000000" font-family="sans-serif" font-size="14" lengthAdjust="spacing" textLength="33" x="88.5" y="77.3052">Alice</text><!--MD5=[16fab723be418f7eaf2ea4bd895a8e51]
entity C--><polygon fill="#FEFECE" filter="url(#f72ejg94t774k)" points="255,33.77,265,23.77,305,23.77,305,60.2583,295,70.2583,255,70.2583,255,33.77" style="stroke:#000000;stroke-width:1.5;"/><line style="stroke:#000000;stroke-width:1.5;" x1="295" x2="305" y1="33.77" y2="23.77"/><line style="stroke:#000000;stroke-width:1.5;" x1="255" x2="295" y1="33.77" y2="33.77"/><line style="stroke:#000000;stroke-width:1.5;" x1="295" x2="295" y1="33.77" y2="70.2583"/><text fill="#000000" font-family="sans-serif" font-size="14" lengthAdjust="spacing" textLength="10" x="270" y="57.3052">C</text><!--MD5=[770389ab9df153645bc6ef28055eb2b5]
entity A--><ellipse cx="158" cy="46.77" fill="#FEFECE" filter="url(#f72ejg94t774k)" rx="8" ry="8" style="stroke:#A80036;stroke-width:1.5;"/><text fill="#000000" font-family="sans-serif" font-size="14" lengthAdjust="spacing" textLength="10" x="153" y="77.3052">A</text><!--MD5=[b2d39259b6aeabc16b394deeb0238426]
entity B--><ellipse cx="211" cy="46.77" fill="#FEFECE" filter="url(#f72ejg94t774k)" rx="8" ry="8" style="stroke:#A80036;stroke-width:1.5;"/><text fill="#000000" font-family="sans-serif" font-size="14" lengthAdjust="spacing" textLength="8" x="207" y="77.3052">B</text><!--MD5=[838606ef52345285279842dbe5b94377]
link Bob to Alice--><path d="M28.2,46.77 C43.2,46.77 73.03,46.77 90.77,46.77 " fill="none" id="Bob-to-Alice" style="stroke:#A80036;stroke-width:1.0;"/><polygon fill="#A80036" points="95.86,46.77,86.86,42.77,90.86,46.77,86.86,50.77,95.86,46.77" style="stroke:#A80036;stroke-width:1.0;"/><text fill="#000000" font-family="sans-serif" font-size="13" lengthAdjust="spacing" textLength="31" x="46.5" y="40.3384">hello</text><!--MD5=[e1650921a81fac0037ec207a42ac4e7e]
link A to C--><path d="M165.35,37.47 C173.34,28.17 187.06,14.47 202.5,8.77 C210.01,6 212.82,6.53 220.5,8.77 C231.02,11.84 241.44,17.4 250.56,23.33 " fill="none" id="A-to-C" style="stroke:#A80036;stroke-width:1.0;"/><polygon fill="#A80036" points="254.92,26.27,249.6834,17.9287,250.7708,23.48,245.2194,24.5674,254.92,26.27" style="stroke:#A80036;stroke-width:1.0;"/><!--MD5=[cd25d8247324207f828a4db9f58ed69d]
link B to C--><path d="M220.16,46.77 C229.98,46.77 239.8,46.77 249.62,46.77 " fill="none" id="B-to-C" style="stroke:#A80036;stroke-width:1.0;"/><polygon fill="#A80036" points="254.76,46.77,245.76,42.77,249.76,46.77,245.76,50.77,254.76,46.77" style="stroke:#A80036;stroke-width:1.0;"/><!--MD5=[b3172f0a444a03d54aca708c05af6cd1]
@startuml
Bob -> Alice : hello
node C

A -> C
B -> C

@enduml

PlantUML version 1.2022.0(Tue Jan 11 17:16:42 CET 2022)
(GPL source distribution)
Java Runtime: OpenJDK Runtime Environment
JVM: OpenJDK 64-Bit Server VM
Default Encoding: UTF-8
Language: en
Country: GB
--></g></svg>